<svg viewBox="0 0 800 800" xmlns="http://www.w3.org/2000/svg"><path d="M641.1958599247739,276.3108612745996 L641.2809949678817,245.1195672296948 M157.17706561131044,553.9790932223887 L157.09084165610062,522.687538282496 M641.1958599247739,276.3108612745996 L667.6751535673184,293.26583794421373 M667.6751535673184,293.26583794421373 L690.5641340510667,311.8730280497704 M690.5641340510667,311.8730280497704 L709.5508583247095,331.88468344873024 M709.5508583247095,331.88468344873024 L724.3746584974594,353.0336426853508 M724.3746584974594,353.0336426853508 L734.8299003802374,375.03675206440147 M734.8299003802374,375.03675206440147 L740.7689647817006,397.5985547352036 M740.7689647817006,397.5985547352036 L742.1046945965481,420.41514999987425 M742.1046945965481,420.41514999987425 L738.8118359224964,443.17827063237615 M738.8118359224964,443.17827063237615 L730.927765283428,465.57939530985425 M730.927765283428,465.57939530985425 L718.5524604065608,487.3139812387838 M718.5524604065608,487.3139812387838 L701.8474671776896,508.0856615138976 M701.8474671776896,508.0856615138976 L681.03395386345,527.6103617270766 M681.03395386345,527.6103617270766 L656.3901201206288,545.6203653899759 M656.3901201206288,545.6203653899759 L628.2474981265323,561.8680666027326 M628.2474981265323,561.8680666027326 L596.9866205692906,576.1295824893382 M596.9866205692906,576.1295824893382 L563.0318926784698,588.2079997370524 M563.0318926784698,588.2079997370524 L526.8456877794647,597.9362271351545 M526.8456877794647,597.9362271351545 L488.9220383151271,605.1795272509979 M488.9220383151271,605.1795272509979 L449.779608393491,609.8374315524039 M449.779608393491,609.8374315524039 L409.95440168512977,611.845281517672 M409.95440168512977,611.845281517672 L369.992159596653,611.1752184096509 M369.992159596653,611.1752184096509 L330.4405451698709,607.8365470539591 M330.4405451698709,607.8365470539591 L291.8414094540059,601.8755973127362 M291.8414094540059,601.8755973127362 L254.7230221072378,593.3750935814575 M254.7230221072378,593.3750935814575 L219.59262343538407,582.4528519748169 M219.59262343538407,582.4528519748169 L186.92925285035204,569.2600736315264 M186.92925285035204,569.2600736315264 L157.17706561131044,553.9790932223887 M641.2809949678817,245.1195672296948 L667.7696700729509,262.06838597319165 M667.7696700729509,262.06838597319165 L690.6667751600071,280.6688234389825 M690.6667751600071,280.6688234389825 L709.6602556240405,300.6732227691281 M709.6602556240405,300.6732227691281 L724.4893494680648,321.81452060872334 M724.4893494680648,321.81452060872334 L734.9483472697511,343.8096668560756 M734.9483472697511,343.8096668560756 L740.8895746610328,366.36331234094854 M740.8895746610328,366.36331234094854 L742.2258404373604,389.1716666841808 M742.2258404373604,389.1716666841808 L738.931878358344,411.9265741111027 M738.931878358344,411.9265741111027 L731.0450748110186,434.3196243883218 M731.0450748110186,434.3196243883218 L718.6654397592183,456.04638393641403 M718.6654397592183,456.04638393641403 L701.9545735052809,476.8105917120612 M701.9545735052809,476.8105917120612 L681.1337203757446,496.32827439130887 M681.1337203757446,496.32827439130887 L656.4811769376861,514.3318104040621 M656.4811769376861,514.3318104040621 L628.3285919079951,530.5736813420717 M628.3285919079951,530.5736813420717 L597.0566326582195,544.8300831939741 M597.0566326582195,544.8300831939741 L563.0898554341754,556.9041718202809 M563.0898554341754,556.9041718202809 L526.8907987801608,566.6289145677761 M526.8907987801608,566.6289145677761 L488.9536722453928,573.8696211293252 M488.9536722453928,573.8696211293252 L449.79732632388755,578.5258580586827 M449.79732632388755,578.5258580586827 L409.95795761936375,580.5329893900191 M409.95795761936375,580.5329893900191 L369.9815041536366,579.8631660984779 M369.9815041536366,579.8631660984779 L330.4158263115574,576.5256897660975 M330.4158263115574,576.5256897660975 L291.80297028576655,570.5668740991464 M291.80297028576655,570.5668740991464 L254.67139574580665,562.0694146210585 M254.67139574580665,562.0694146210585 L219.52852507656806,551.1510862733062 M219.52852507656806,551.1510862733062 L186.8535691614665,537.9630372610392 M186.8535691614665,537.9630372610392 L157.09084165610062,522.687538282496 M157.17706561131044,553.9790932223887 L130.73922190414385,536.8206925365917 M130.73922190414385,536.8206925365917 L107.97234898799013,518.0210459794423 M107.97234898799013,518.0210459794423 L89.18180672183121,497.83827679382756 M89.18180672183121,497.83827679382756 L74.61768662111763,476.54877090810294 M74.61768662111763,476.54877090810294 L64.47162338269322,454.44325863499404 M64.47162338269322,454.44325863499404 L58.87456869576198,431.8227171039665 M58.87456869576198,431.8227171039665 L57.89524209011722,408.99421347850716 M57.89524209011722,408.99421347850716 L61.53968446226702,386.2666569160456 M61.53968446226702,386.2666569160456 L69.75156571572364,363.9466515778756 M69.75156571572364,363.9466515778756 L82.41323617374331,342.3343673268432 M82.41323617374331,342.3343673268432 L99.34771222940134,321.71957809955137 M99.34771222940134,321.71957809955137 L120.32145368701725,302.3779004599638 M120.32145368701725,302.3779004599638 L145.04762301538887,284.56718455079715 M145.04762301538887,284.56718455079715 L173.1902485880271,268.5242926552658 M173.1902485880271,268.5242926552658 L204.36879695552136,254.46206633634185 M204.36879695552136,254.46206633634185 L238.1633009768816,242.5666751163022 M238.1633009768816,242.5666751163022 L274.1200242919125,232.9953426769177 M274.1200242919125,232.9953426769177 L311.7573061224249,225.87434826612582 M311.7573061224249,225.87434826612582 L350.5719205181838,221.29756632670228 M350.5719205181838,221.29756632670228 L390.04553680298716,219.32528165216058 M390.04553680298716,219.32528165216058 L429.65136857357237,219.9834359138479 M429.65136857357237,219.9834359138479 L468.8609673061642,223.2633663253435 M468.8609673061642,223.2633663253435 L507.1509207991346,229.12190956645134 M507.1509207991346,229.12190956645134 L544.0096276577183,237.48186260595048 M544.0096276577183,237.48186260595048 L578.9438471568653,248.2329866073951 M578.9438471568653,248.2329866073951 L611.4851156569468,261.2333057976863 M611.4851156569468,261.2333057976863 L641.1958599247739,276.3108612745996 M157.09084165610062,522.687538282496 L130.64364584312966,505.53529698285826 M130.64364584312966,505.53529698285826 L107.8687348004475,486.74240444741616 M107.8687348004475,486.74240444741616 L89.07157527820004,466.56689255980933 M89.07157527820004,466.56689255980933 L74.50234540778524,445.2850490810798 M74.50234540778524,445.2850490810798 L64.35274520508756,423.1875006757396 M64.35274520508756,423.1875006757396 L58.75376973261717,400.5751167529314 M58.75376973261717,400.5751167529314 L57.77415956263957,377.75485413452975 M57.77415956263957,377.75485413452975 L61.41995432392781,355.03551052195456 M61.41995432392781,355.03551052195456 L69.63480063469973,332.72357900089924 M69.63480063469973,332.72357900089924 L82.30100406694265,311.11912025171307 M82.30100406694265,311.11912025171307 L99.24151566456976,290.5118023966554 M99.24151566456976,290.5118023966554 L120.2227104102808,271.1771409765206 M120.2227104102808,271.1771409765206 L144.9576477450426,253.37289128682121 M144.9576477450426,253.37289128682121 L173.1102363583454,237.3358281963898 M173.1102363583454,237.3358281963898 L204.29980811628303,223.27871448278253 M204.29980811628303,223.27871448278253 L238.10624800412333,211.387650571979 M238.10624800412333,211.387650571979 L274.07566055902174,201.81980165880455 M274.07566055902174,201.81980165880455 L311.7262166577662,194.70139992607233 M311.7262166577662,194.70139992607233 L350.5545148973775,190.1262847776464 M350.5545148973775,190.1262847776464 L390.04204418464025,188.15471848232806 M390.04204418464025,188.15471848232806 L429.6618349252568,188.8126330128208 M429.6618349252568,188.8126330128208 L468.8852548603937,192.09136882171273 M468.8852548603937,192.09136882171273 L507.1887097035845,197.94777872212677 M507.1887097035845,197.94777872212677 L544.0604198531971,206.30468851553098 M544.0604198531971,206.30468851553098 L579.0069724194436,217.05190048463842 M579.0069724194436,217.05190048463842 L611.5597397805836,230.04749172399784 M611.5597397805836,230.04749172399784 L641.2809949678817,245.1195672296948 M140.21748931589002,374.77833023963865 L140.12561926483102,343.551338511091 M103.46087575146282,369.1282784249231 L103.35601834840708,337.90333077857184 M140.21748931589002,374.77833023963865 L138.48854729582717,377.21982627422034 M138.48854729582717,377.21982627422034 L135.79158211319577,379.3554479005153 M135.79158211319577,379.3554479005153 L132.2832728860168,381.06096462512414 M132.2832728860168,381.06096462512414 L128.1675672291969,382.23716374601906 M128.1675672291969,382.23716374601906 L123.683742551347,382.8155871690511 M123.683742551347,382.8155871690511 L119.0925749202811,382.7625741256477 M119.0925749202811,382.7625741256477 L114.661063058602,382.08120468789275 M114.661063058602,382.08120468789275 L110.64694156926657,380.81114539194 M110.64694156926657,380.81114539194 L107.28358823913368,379.02629986834216 M107.28358823913368,379.02629986834216 L104.76649279094914,376.830495658086 M104.76649279094914,376.830495658086 L103.24183476913817,374.3514595873754 M103.24183476913817,374.3514595873754 L102.79810860466466,371.73333061162407 M102.79810860466466,371.73333061162407 L103.46087575146282,369.1282784249231 M140.12561926483102,343.551338511091 L138.3960605395256,345.9919514184267 M138.3960605395256,345.9919514184267 L135.69813680694415,348.1268006361829 M135.69813680694415,348.1268006361829 L132.18858285039556,349.83170056502155 M132.18858285039556,349.83170056502155 L128.07141865573345,351.00747434395396 M128.07141865573345,351.00747434395396 L123.58600646929983,351.58568860334805 M123.58600646929983,351.58568860334805 L118.99321474974715,351.53269472976046 M118.99321474974715,351.53269472976046 L114.56013673723783,350.8515716830949 M114.56013673723783,350.8515716830949 L110.54459818082262,349.58197167538066 M110.54459818082262,349.58197167538066 L107.18005929097853,347.79777164497887 M107.18005929097853,347.79777164497887 L104.6620787043421,345.60276162278683 M104.6620787043421,345.60276162278683 L103.13688734169449,343.1246222745247 M103.13688734169449,343.1246222745247 L102.69301053605585,340.5074404422831 M102.69301053605585,340.5074404422831 L103.35601834840708,337.90333077857184 M103.46087575146282,369.1282784249231 L105.19145557448905,366.68768714226684 M105.19145557448905,366.68768714226684 L107.88913452807589,364.5533043798044 M107.88913452807589,364.5533043798044 L111.39706997051786,362.84907681571974 M111.39706997051786,362.84907681571974 L115.51139993494814,361.6739218328532 M115.51139993494814,361.6739218328532 L119.99316214929263,361.0960583165256 M119.99316214929263,361.0960583165256 L124.58205303995874,361.1490187698927 M124.58205303995874,361.1490187698927 L129.01159545162506,361.8297351636543 M129.01159545162506,361.8297351636543 L133.02450596612744,363.0986905768873 M133.02450596612744,363.0986905768873 L136.38768420849476,364.8822342617615 M136.38768420849476,364.8822342617615 L138.9056966996052,367.0768461761827 M138.9056966996052,367.0768461761827 L140.43210912304664,369.55504695259594 M140.43210912304664,369.55504695259594 L140.87808594590416,372.1729239514659 M140.87808594590416,372.1729239514659 L140.21748931589002,374.77833023963865 M103.35601834840708,337.90333077857184 L105.08721603335783,335.46362261571625 M105.08721603335783,335.46362261571625 L107.7858540390842,333.3300122515982 M107.7858540390842,333.3300122515982 L111.29503394354208,331.6264014726754 M111.29503394354208,331.6264014726754 L115.41082147017818,330.4516718231795 M115.41082147017818,330.4516718231795 L119.89416973268101,329.87401746588256 M119.89416973268101,329.87401746588256 L124.48468310119165,329.92695874986634 M124.48468310119165,329.92695874986634 L128.9157902718032,330.6074287579124 M128.9157902718032,330.6074287579124 L132.9301169991271,331.8759248919908 M132.9301169991271,331.8759248919908 L136.2944806802687,333.6588230943815 M136.2944806802687,333.6588230943815 L138.81337895560983,335.8526408272712 M138.81337895560983,335.8526408272712 L140.34032596868872,338.3299448913882 M140.34032596868872,338.3299448913882 L140.78645501988376,340.9468747455432 M140.78645501988376,340.9468747455432 L140.12561926483102,343.551338511091 M697.0693525833001,460.374849140958 L697.1746488413519,429.1169534535503 M660.168491714754,454.7026243298215 L660.260698467762,423.44677288400334 M697.0693525833001,460.374849140958 L695.3682195379595,462.8259274441353 M695.3682195379595,462.8259274441353 L692.6932564849205,464.96993129816735 M692.6932564849205,464.96993129816735 L689.1998621392145,466.6821424016162 M689.1998621392145,466.6821424016162 L685.0911162849254,467.86295841249046 M685.0911162849254,467.86295841249046 L680.6058909534815,468.4436523448828 M680.6058909534815,468.4436523448828 L676.0050437625548,468.3904312059343 M676.0050437625548,468.3904312059343 L671.5561366939035,467.70638716699233 M671.5561366939035,467.70638716699233 L667.5179168705097,466.4313425784905 M667.5179168705097,466.4313425784905 L664.125164152817,464.6394913465978 M664.125164152817,464.6394913465978 L661.5750619207888,462.43505945391183 M661.5750619207888,462.43505945391183 L660.0157569268115,459.94630318206305 M660.0157569268115,459.94630318206305 L659.5376933582068,457.31789008547776 M659.5376933582068,457.31789008547776 L660.168491714754,454.7026243298215 M697.1746488413519,429.1169534535503 L695.472918787742,431.5671485615424 M695.472918787742,431.5671485615424 L692.7970127695492,433.710379948072 M692.7970127695492,433.710379948072 L689.3023842595785,435.42197420897287 M689.3023842595785,435.42197420897287 L685.1921847976682,436.60236484578553 M685.1921847976682,436.60236484578553 L680.7053709655729,437.18284959880253 M680.7053709655729,437.18284959880253 L676.1028928295916,437.12964763111097 M676.1028928295916,437.12964763111097 L671.6524072883215,436.4458500018034 M671.6524072883215,436.4458500018034 L667.6127533285382,435.1712647362249 M667.6127533285382,435.1712647362249 L664.2187942279918,433.38005904653085 M664.2187942279918,433.38005904653085 L661.6677834863908,431.1764214059644 M661.6677834863908,431.1764214059644 L660.1079206088887,428.6885619222889 M660.1079206088887,428.6885619222889 L659.6296820887328,426.0610960461577 M659.6296820887328,426.0610960461577 L660.260698467762,423.44677288400334 M660.168491714754,454.7026243298215 L661.8712805736873,452.25245610968807 M661.8712805736873,452.25245610968807 L664.5469760595804,450.1096984193126 M664.5469760595804,450.1096984193126 L668.0400116583896,448.39878407257834 M668.0400116583896,448.39878407257834 L672.147389789309,447.21901835216346 M672.147389789309,447.21901835216346 L676.6305517316493,446.63888762564426 M676.6305517316493,446.63888762564426 L681.229112574069,446.69205586467723 M681.229112574069,446.69205586467723 L685.676034103104,447.37544301165934 M685.676034103104,447.37544301165934 L689.7130240666663,448.64937721297355 M689.7130240666663,448.64937721297355 L693.1055843424494,450.4399189352479 M693.1055843424494,450.4399189352479 L695.6565593770033,452.64313286935146 M695.6565593770033,452.64313286935146 L697.2176475381982,455.13106756237175 M697.2176475381982,455.13106756237175 L697.6979347970178,457.75920856002097 M697.6979347970178,457.75920856002097 L697.0693525833001,460.374849140958 M660.260698467762,423.44677288400334 L661.9640855107821,420.9974878534588 M661.9640855107821,420.9974878534588 L664.6407244838458,418.8555026229234 M664.6407244838458,418.8555026229234 L668.1349939955435,417.1452051107633 M668.1349939955435,417.1452051107633 L672.2438247669145,415.9658647579518 M672.2438247669145,415.9658647579518 L676.7285737484974,415.3859432073449 M676.7285737484974,415.3859432073449 L681.328763915121,415.43909227544617 M681.328763915121,415.43909227544617 L685.7772625077955,416.12223301683304 M685.7772625077955,416.12223301683304 L689.8156857334241,417.3957079020517 M689.8156857334241,417.3957079020517 L693.2094522526861,419.18560409017954 M693.2094522526861,419.18560409017954 L695.7613364185358,421.38802378295077 M695.7613364185358,421.38802378295077 L697.3229837196709,423.87506168955184 M697.3229837196709,423.87506168955184 L697.8034475115087,426.5022554717178 M697.8034475115087,426.5022554717178 L697.1746488413519,429.1169534535503 M330.5320196786886,266.0705150067686 L330.5075256195923,234.88294243746432 M320.73553550620977,245.09651612898375 L320.7075984951759,213.91657108642005 M330.5320196786886,266.0705150067686 L325.9966618585547,266.438438003964 M325.9966618585547,266.438438003964 L321.44011430788373,266.17520479621805 M321.44011430788373,266.17520479621805 L317.1274253264676,265.29615195104134 M317.1274253264676,265.29615195104134 L313.3093118529542,263.8524223605315 M313.3093118529542,263.8524223605315 L310.20781276670607,261.9280336383729 M310.20781276670607,261.9280336383729 L308.00312214129013,259.63493052047795 M308.00312214129013,259.63493052047795 L306.82326126604266,257.106466651791 M306.82326126604266,257.106466651791 L306.7366521611626,254.4896555532932 M306.7366521611626,254.4896555532932 L307.7481253096738,251.93657091611294 M307.7481253096738,251.93657091611294 L309.7987278286558,249.595550394437 M309.7987278286558,249.595550394437 L312.7691485149342,247.6025398621897 M312.7691485149342,247.6025398621897 L316.4867542634987,246.073271151029 M316.4867542634987,246.073271151029 L320.73553550620977,245.09651612898375 M330.5075256195923,234.88294243746432 L325.9705674042668,235.250731697223 M325.9705674042668,235.250731697223 L321.4124123566056,234.9875941726844 M321.4124123566056,234.9875941726844 L317.098202349372,234.10886086445657 M317.098202349372,234.10886086445657 L313.2787427985366,232.66565609884475 M313.2787427985366,232.66565609884475 L310.1761508900422,230.7419669833842 M310.1761508900422,230.7419669833842 L307.9706841836556,228.4496975956974 M307.9706841836556,228.4496975956974 L306.7904089971454,225.92215312878983 M306.7904089971454,225.92215312878983 L306.703771317712,223.30629366598333 M306.703771317712,223.30629366598333 L307.71560314912625,220.7541375964639 M307.71560314912625,220.7541375964639 L309.76693064156314,218.41396860661328 M309.76693064156314,218.41396860661328 L312.7384003695841,216.4216830896442 M312.7384003695841,216.4216830896442 L316.4573182498165,214.89297073786764 M316.4573182498165,214.89297073786764 L320.7075984951759,213.91657108642005 M320.73553550620977,245.09651612898375 L325.26873153304825,244.72896282974943 M325.26873153304825,244.72896282974943 L329.82304241877625,244.9919276472241 M329.82304241877625,244.9919276472241 L334.1339930569973,245.87017027913777 M334.1339930569973,245.87017027913777 L337.9512039316272,247.31269866448633 M337.9512039316272,247.31269866448633 L341.0528876266546,249.23579592723513 M341.0528876266546,249.23579592723513 L343.25879164357787,251.52780396550344 M343.25879164357787,251.52780396550344 L344.4406167274878,254.05562000248318 M344.4406167274878,254.05562000248318 L344.5294908741336,256.6723789304544 M344.5294908741336,256.6723789304544 L343.52006471331237,259.2260190084347 M343.52006471331237,259.2260190084347 L341.47082217913623,261.5680753346894 M341.47082217913623,261.5680753346894 L338.5007629365853,263.56236475384 M338.5007629365853,263.56236475384 L334.78243726975796,265.0928624499845 M334.78243726975796,265.0928624499845 L330.5320196786886,266.0705150067686 M320.7075984951759,213.91657108642005 L325.242393385936,213.54915151728278 M325.242393385936,213.54915151728278 L329.79831019631655,213.81202065777006 M329.79831019631655,213.81202065777006 L334.11078062858167,214.68994375844062 M334.11078062858167,214.68994375844062 L337.92933695007343,216.1319473354253 M337.92933695007343,216.1319473354253 L341.0321135983849,218.05434500575566 M341.0321135983849,218.05434500575566 L343.2387945531062,220.34551932592404 M343.2387945531062,220.34551932592404 L344.42103533461227,222.87241596828738 M344.42103533461227,222.87241596828738 L344.5099396540535,225.48822326114424 M344.5099396540535,225.48822326114424 L343.50015625434634,228.04093476532233 M343.50015625434634,228.04093476532233 L341.45018970569487,230.38213954829888 M341.45018970569487,230.38213954829888 L338.4790816756651,232.37570393803048 M338.4790816756651,232.37570393803048 L334.75944336845595,233.90564526120176 M334.75944336845595,233.90564526120176 L330.5075256195923,234.88294243746432 M479.79470155983216,585.6381242455113 L479.82307743823327,554.3352171139538 M469.85396649151517,564.3552880470315 L469.87879725984243,533.060010656881 M479.79470155983216,585.6381242455113 L475.22732022790365,586.0114568024023 M475.22732022790365,586.0114568024023 L470.63644776275515,585.7443559453137 M470.63644776275515,585.7443559453137 L466.28906643404844,584.8523468337992 M466.28906643404844,584.8523468337992 L462.4379754065748,583.3873635823722 M462.4379754065748,583.3873635823722 L459.3070842305249,581.4346338705975 M459.3070842305249,581.4346338705975 L457.0783112715806,579.1077612603652 M457.0783112715806,579.1077612603652 L455.88107614376895,576.5420639320324 M455.88107614376895,576.5420639320324 L455.78480851156456,573.8867206986376 M455.78480851156456,573.8867206986376 L456.7948972370062,571.2960445450676 M456.7948972370062,571.2960445450676 L458.85246722392037,568.9205568891126 M458.85246722392037,568.9205568891126 L461.83780011077573,566.8982044932095 M461.83780011077573,566.8982044932095 L465.5773955704805,565.346422223713 M465.5773955704805,565.346422223713 L469.85396649151517,564.3552880470315 M479.82307743823327,554.3352171139538 L475.25407303274216,554.7084158993196 M475.25407303274216,554.7084158993196 L470.66156875040053,554.4414107488673 M470.66156875040053,554.4414107488673 L466.31264182776545,553.5497212672815 M466.31264182776545,553.5497212672815 L462.4601813597834,552.0852629851943 M462.4601813597834,552.0852629851943 L459.32817654592316,550.1332330782813 M459.32817654592316,550.1332330782813 L457.09861045353136,547.8071944361209 M457.09861045353136,547.8071944361209 L455.9009487147809,545.2424167740282 M455.9009487147809,545.2424167740282 L455.80464567367545,542.5880254524363 M455.80464567367545,542.5880254524363 L456.81509210710175,539.9982781382776 M456.81509210710175,539.9982781382776 L458.87339200577827,537.6236422653767 M458.87339200577827,537.6236422653767 L461.8597844966166,535.6020151001794 M461.8597844966166,535.6020151001794 L465.6007076596188,534.0507893563325 M465.6007076596188,534.0507893563325 L469.87879725984243,533.060010656881 M469.85396649151517,564.3552880470315 L474.41912282104624,563.9823145958176 M474.41912282104624,563.9823145958176 L479.00775741628047,564.2491599007346 M479.00775741628047,564.2491599007346 L483.3533393257188,565.1403220501179 M483.3533393257188,565.1403220501179 L487.2035429500502,566.6040962555963 M487.2035429500502,566.6040962555963 L490.3346169632052,568.555505878548 M490.3346169632052,568.555505878548 L492.5646173733216,570.8812591331397 M492.5646173733216,570.8812591331397 L493.7638433800099,573.4462942684613 M493.7638433800099,573.4462942684613 L493.86240922481784,576.1015841747994 M493.86240922481784,576.1015841747994 L492.85439955958117,578.6928280823277 M492.85439955958117,578.6928280823277 L490.7982131841026,581.0693745048502 M490.7982131841026,581.0693745048502 L487.813251509438,583.0930341383591 M487.813251509438,583.0930341383591 L484.07292980363343,584.6460726373032 M484.07292980363343,584.6460726373032 L479.79470155983216,585.6381242455113 M469.87879725984243,533.060010656881 L474.4455750874564,532.6871709793336 M474.4455750874564,532.6871709793336 L479.03583990331754,532.953920575132 M479.03583990331754,532.953920575132 L483.3829661329673,533.8447631007012 M483.3829661329673,533.8447631007012 L487.2345385605434,535.3080123374987 M487.2345385605434,535.3080123374987 L490.3667263406641,537.2587221599377 M490.3667263406641,537.2587221599377 L492.59752075599334,539.583641450145 M492.59752075599334,539.583641450145 L493.7971747882901,542.1477569214085 M493.7971747882901,542.1477569214085 L493.89577767548434,544.8020949161194 M493.89577767548434,544.8020949161194 L492.88741178035656,547.3924099823657 M492.88741178035656,547.3924099823657 L490.83049647719804,549.7681046183459 M490.83049647719804,549.7681046183459 L487.84447546319313,551.7910390168422 M487.84447546319313,551.7910390168422 L484.1028255386543,553.3435209859981 M484.1028255386543,553.3435209859981 L479.82307743823327,554.3352171139538 M589.7961262330712,305.7974707708401 L589.863167408713,274.595470392788 M616.6128743986928,290.4134420157193 L616.689358740201,259.2170256887283 M589.7961262330712,305.7974707708401 L586.9600098698447,303.7325068935586 M586.9600098698447,303.7325068935586 L585.068476377377,301.3406191768112 M585.068476377377,301.3406191768112 L584.2312944438909,298.7609165507396 M584.2312944438909,298.7609165507396 L584.4969705828798,296.1433418915118 M584.4969705828798,296.1433418915118 L585.8498443500987,293.64002090200916 M585.8498443500987,293.64002090200916 L588.2111353199064,291.3963730376502 M588.2111353199064,291.3963730376502 L591.4435553268656,289.5426740807399 M591.4435553268656,289.5426740807399 L595.3591979995356,288.1865715689952 M595.3591979995356,288.1865715689952 L599.7306224860283,287.40676054804476 M599.7306224860283,287.40676054804476 L604.3039392214912,287.24849562688746 M604.3039392214912,287.24849562688746 L608.8135297255894,287.7209769846485 M608.8135297255894,287.7209769846485 L612.9975284540669,288.79676562632574 M612.9975284540669,288.79676562632574 L616.6128743986928,290.4134420157193 M589.863167408713,274.595470392788 L587.0260463584946,272.53125582751113 M587.0260463584946,272.53125582751113 L585.1338413257729,270.1402361397197 M585.1338413257729,270.1402361397197 L584.2963599243897,267.56146980550506 M584.2963599243897,267.56146980550506 L584.5621259557054,264.94484529378906 M584.5621259557054,264.94484529378906 L585.9154736053838,262.4424330829247 M585.9154736053838,262.4424330829247 L588.2775947956684,260.19959981452143 M588.2775947956684,260.19959981452143 L591.5111530589063,258.34657393723865 M591.5111530589063,258.34657393723865 L595.4281758544582,256.99096386268866 M595.4281758544582,256.99096386268866 L599.8011421973301,256.211436025523 M599.8011421973301,256.211436025523 L604.3760730288725,256.0532285785432 M604.3760730288725,256.0532285785432 L608.8872561899852,256.52553835509184 M608.8872561899852,256.52553835509184 L613.0727337172109,257.6009363385048 M613.0727337172109,257.6009363385048 L616.689358740201,259.2170256887283 M616.6128743986928,290.4134420157193 L619.4495284137167,292.47714419356515 M619.4495284137167,292.47714419356515 L621.3425634751654,294.86805924778787 M621.3425634751654,294.86805924778787 L622.1818668842029,297.44730107976363 M622.1818668842029,297.44730107976363 L621.9184461414163,300.0650323722623 M621.9184461414163,300.0650323722623 L620.5674449943212,302.56909154007883 M620.5674449943212,302.56909154007883 L618.2072148783909,304.81389001699836 M618.2072148783909,304.81389001699836 L614.9748009312011,306.6688884411472 M614.9748009312011,306.6688884411472 L611.0581081358416,308.02614156377973 M611.0581081358416,308.02614156377973 L606.6848179137417,308.80669076101276 M606.6848179137417,308.80669076101276 L602.1092472427924,308.96511231951547 M602.1092472427924,308.96511231951547 L597.5975309654441,308.4921701616518 M597.5975309654441,308.4921701616518 L593.4120215965554,307.4154088640381 M593.4120215965554,307.4154088640381 L589.7961262330712,305.7974707708401 M616.689358740201,259.2170256887283 L619.5270178198753,261.2799785672162 M619.5270178198753,261.2799785672162 L621.420725480516,263.6700256022324 M621.420725480516,263.6700256022324 L622.2603298550644,266.24833114697003 M622.2603298550644,266.24833114697003 L621.9968208131686,268.8651122903871 M621.9968208131686,268.8651122903871 L620.6453471074396,271.3682626721657 M620.6453471074396,271.3682626721657 L618.2842875221968,273.61224654159645 M618.2842875221968,273.61224654159645 L615.0507353251494,275.4665718730924 M615.0507353251494,275.4665718730924 L611.1326616671142,276.8233325469972 M611.1326616671142,276.8233325469972 L606.7578282721047,277.6035985530462 M606.7578282721047,277.6035985530462 L602.1806419134061,277.76196263580147 M602.1806419134061,277.76196263580147 L597.6673314768757,277.2891920637693 M597.6673314768757,277.2891920637693 L593.4803422406887,276.2128214341691 M593.4803422406887,276.2128214341691 L589.863167408713,274.595470392788 M182.05826124781785,539.705437566237 L181.9808991840707,508.4190061362474 M209.16350731446795,524.1559055227307 L209.09579272755894,492.8750593320825 M182.05826124781785,539.705437566237 L179.22634554539118,537.6182551299901 M179.22634554539118,537.6182551299901 L177.34715629796023,535.2006325515902 M177.34715629796023,535.2006325515902 L176.52974228267317,532.5931759162614 M176.52974228267317,532.5931759162614 L176.8214592143844,529.9474414898741 M176.8214592143844,529.9474414898741 L178.20513101495175,527.4171914645746 M178.20513101495175,527.4171914645746 L180.60018629701437,525.1494092774371 M180.60018629701437,525.1494092774371 L183.86737493778597,523.2757715192286 M183.86737493778597,523.2757715192286 L187.81677045277922,521.9050830065519 M187.81677045277922,521.9050830065519 L192.21897263883758,521.1168846821488 M192.21897263883758,521.1168846821488 L196.81830558624677,520.9569175517628 M196.81830558624677,520.9569175517628 L201.34764075426938,521.4344806739784 M201.34764075426938,521.4344806739784 L205.5439670565311,522.521840147591 M205.5439670565311,522.521840147591 L209.16350731446795,524.1559055227307 M181.9808991840707,508.4190061362474 L179.1479817728276,506.3325731679148 M179.1479817728276,506.3325731679148 L177.26812973185514,503.9158188004564 M177.26812973185514,503.9158188004564 L176.4504302530485,501.3092986549337 M176.4504302530485,501.3092986549337 L176.74225552303454,498.66451457868936 M176.74225552303454,498.66451457868936 L178.12642301929438,496.13517352748823 M178.12642301929438,496.13517352748823 L180.52233243347507,493.86820611288096 M180.52233243347507,493.86820611288096 L183.79068395111523,491.99524158117686 M183.79068395111523,491.99524158117686 L187.74148348840436,490.62504561371253 M187.74148348840436,490.62504561371253 L192.14524932239098,489.83713053542635 M192.14524932239098,489.83713053542635 L196.74621478559644,489.67722089188743 M196.74621478559644,489.67722089188743 L201.2771565901595,490.15461239508556 M201.2771565901595,490.15461239508556 L205.4749704200033,491.2415811245741 M205.4749704200033,491.2415811245741 L209.09579272755894,492.8750593320825 M209.16350731446795,524.1559055227307 L211.9959783784754,526.241805844602 M211.9959783784754,526.241805844602 L213.87669454261675,528.6584400223019 M213.87669454261675,528.6584400223019 L214.69625721200475,531.2654284076516 M214.69625721200475,531.2654284076516 L214.40681845982027,533.9113220017159 M214.40681845982027,533.9113220017159 L213.02503244795034,536.4423221494305 M213.02503244795034,536.4423221494305 L210.63103855690485,538.7112735666262 M210.63103855690485,538.7112735666262 L207.36384375845367,540.5862318181163 M207.36384375845367,540.5862318181163 L203.41337594777846,541.9580895591521 M203.41337594777846,541.9580895591521 L199.00928097701185,542.7470380039067 M199.00928097701185,542.7470380039067 L194.4076683654528,542.9071643061105 M194.4076683654528,542.9071643061105 L189.8761889103573,542.4291329278115 M189.8761889103573,542.4291329278115 L185.67834490962952,541.3407850601927 M185.67834490962952,541.3407850601927 L182.05826124781785,539.705437566237 M209.09579272755894,492.8750593320825 L211.9292658968574,494.9602101916052 M211.9292658968574,494.9602101916052 L213.8106459404092,497.3759761626544 M213.8106459404092,497.3759761626544 L214.630495599807,499.98202806023073 M214.630495599807,499.98202806023073 L214.34095012677193,502.6269713034611 M214.34095012677193,502.6269713034611 L212.95866975702612,505.15706247382104 M212.95866975702612,505.15706247382104 L210.56382248559748,507.4251991134108 M210.56382248559748,507.4251991134108 L207.2954648037179,509.299484132664 M207.2954648037179,509.299484132664 L203.34359220739526,510.6708493234118 M203.34359220739526,510.6708493234118 L198.9379322434307,511.45951451879324 M198.9379322434307,511.45951451879324 L194.3346854970696,511.6195833334588 M194.3346854970696,511.6195833334588 L189.80159788359575,511.1417235762101 M189.80159788359575,511.1417235762101 L185.6022652792371,510.05376645700596 M185.6022652792371,510.05376645700596 L181.9808991840707,508.4190061362474 M386.4726693001637,422.4385298853963 L386.467895256665,391.194316170271 M413.433093657632,406.97207806193217 L413.43786432264716,375.733449108439 M386.4726693001637,422.4385298853963 L383.6386268034543,420.3624984095591 M383.6386268034543,420.3624984095591 L381.753209798718,417.95780012805653 M381.753209798718,417.95780012805653 L380.9258621316576,415.36427095753163 M380.9258621316576,415.36427095753163 L381.2044828993288,412.73267755803704 M381.2044828993288,412.73267755803704 L382.5726861278344,410.2159443339655 M382.5726861278344,410.2159443339655 L384.95079633179256,407.9602717736765 M384.95079633179256,407.9602717736765 L388.20051623152057,406.0966518309068 M388.20051623152057,406.0966518309068 L392.13298355631747,404.7332796275307 M392.13298355631747,404.7332796275307 L396.5197489920505,403.9492900376582 M396.5197489920505,403.9492900376582 L401.10602896254346,403.790182069655 M401.10602896254346,403.790182069655 L405.6254804266284,404.2651888924162 M405.6254804266284,404.2651888924162 L409.8156308370289,405.3467449639256 M409.8156308370289,405.3467449639256 L413.433093657632,406.97207806193217 M386.467895256665,391.194316170271 L383.6328495303375,389.11903410091577 M383.6328495303375,389.11903410091577 L381.74676530603625,386.7152039553926 M381.74676530603625,386.7152039553926 L380.9191251140044,384.12261119690453 M380.9191251140044,384.12261119690453 L381.1978449222058,381.49196806415455 M381.1978449222058,381.49196806415455 L382.56653286373336,378.97614373581314 M382.56653286373336,378.97614373581314 L384.94548516978955,376.7212858787002 M384.94548516978955,376.7212858787002 L388.1963555568005,374.8583390998192 M388.1963555568005,374.8583390998192 L392.130214891845,373.49545939993504 M392.130214891845,373.49545939993504 L396.51853302670014,372.7117530314722 M396.51853302670014,372.7117530314722 L401.10643626120344,372.5527025434869 M401.10643626120344,372.5527025434869 L405.62748735353546,373.0275377644882 M405.62748735353546,373.0275377644882 L409.8191209206924,374.1087031248736 M409.8191209206924,374.1087031248736 L413.43786432264716,375.733449108439 M413.433093657632,406.97207806193217 L416.2676826052396,409.046837683642 M416.2676826052396,409.046837683642 L418.1546137777852,411.4505554774463 M418.1546137777852,411.4505554774463 L418.98409645196307,414.04362014459855 M418.98409645196307,414.04362014459855 L418.7077424258848,416.67537143722865 M418.7077424258848,416.67537143722865 L417.3414183909729,419.1928487796256 M417.3414183909729,419.1928487796256 L414.96436933147663,421.4496812147341 M414.96436933147663,421.4496812147341 L411.71464943181803,423.31461107559966 M411.71464943181803,423.31461107559966 L407.781120962638,424.67914315370257 M407.781120962638,424.67914315370257 L403.3924763332621,425.4638768617803 M403.3924763332621,425.4638768617803 L398.8039296210415,425.623142722994 M398.8039296210415,425.623142722994 L394.2823431497351,425.1476713971308 M394.2823431497351,425.1476713971308 L390.09067857154207,424.065134837872 M390.09067857154207,424.065134837872 L386.4726693001637,422.4385298853963 M413.43786432264716,375.733449108439 L416.2734568868576,377.8074593328117 M416.2734568868576,377.8074593328117 L418.1610563512694,380.21030899768596 M418.1610563512694,380.21030899768596 L418.9908330623851,382.8024372561412 M418.9908330623851,382.8024372561412 L418.71438160103446,385.4332382808915 M418.71438160103446,385.4332382808915 L417.3475741839052,387.94980672220794 M417.3475741839052,387.94980672220794 L414.96968377379085,390.20582444580106 M414.96968377379085,390.20582444580106 L411.7188133868494,392.07008113335974 M411.7188133868494,392.07008113335974 L407.783892155942,393.4341206996314 M407.783892155942,393.4341206996314 L403.39369349663934,394.21857118094925 M403.39369349663934,394.21857118094925 L398.8035219151503,394.37777956100985 M398.8035219151503,394.37777956100985 L394.2803343036303,393.9024798402463 M394.2803343036303,393.9024798402463 L390.0871854963796,392.82033399916105 M390.0871854963796,392.82033399916105 L386.467895256665,391.194316170271" stroke="black"  stroke-width="4"  fill="red"/></svg>